<svg xmlns="http://www.w3.org/2000/svg" viewBox="0 0 1024 1024" role="img" aria-label="PromptClip app icon">
  <defs>
    <linearGradient id="bg" x1="150" y1="120" x2="900" y2="910" gradientUnits="userSpaceOnUse">
      <stop offset="0" stop-color="#1969f2"/>
      <stop offset="0.54" stop-color="#4058f6"/>
      <stop offset="1" stop-color="#764df7"/>
    </linearGradient>
    <filter id="soft-shadow" x="-20%" y="-20%" width="140%" height="140%">
      <feDropShadow dx="0" dy="14" stdDeviation="20" flood-color="#18266f" flood-opacity="0.16"/>
    </filter>
  </defs>
  <rect x="96" y="96" width="832" height="832" rx="150" fill="url(#bg)"/>
  <g filter="url(#soft-shadow)">
    <path
      d="M399 338H720C759.765 338 792 370.235 792 410V613C792 652.765 759.765 685 720 685H688V462C688 422.235 655.765 390 616 390H399V338Z"
      fill="#fff"/>
    <rect x="282" y="412" width="424" height="336" rx="42" fill="#fff"/>
  </g>
  <path
    d="M381 521C386.1 521 390.4 524.8 391.1 529.9C397.8 578.2 410.8 591.2 459.1 597.9C464.2 598.6 468 602.9 468 608C468 613.1 464.2 617.4 459.1 618.1C410.8 624.8 397.8 637.8 391.1 686.1C390.4 691.2 386.1 695 381 695C375.9 695 371.6 691.2 370.9 686.1C364.2 637.8 351.2 624.8 302.9 618.1C297.8 617.4 294 613.1 294 608C294 602.9 297.8 598.6 302.9 597.9C351.2 591.2 364.2 578.2 370.9 529.9C371.6 524.8 375.9 521 381 521Z"
    fill="url(#bg)"/>
  <path
    d="M448 495C451.9 495 455.196 497.873 455.738 501.734C459.596 529.224 466.776 536.404 494.266 540.262C498.127 540.804 501 544.1 501 548C501 551.9 498.127 555.196 494.266 555.738C466.776 559.596 459.596 566.776 455.738 594.266C455.196 598.127 451.9 601 448 601C444.1 601 440.804 598.127 440.262 594.266C436.404 566.776 429.224 559.596 401.734 555.738C397.873 555.196 395 551.9 395 548C395 544.1 397.873 540.804 401.734 540.262C429.224 536.404 436.404 529.224 440.262 501.734C440.804 497.873 444.1 495 448 495Z"
    fill="url(#bg)"/>
  <path
    d="M447.5 613C451.4 613 454.696 615.873 455.238 619.734C459.096 647.224 466.276 654.404 493.766 658.262C497.627 658.804 500.5 662.1 500.5 666C500.5 669.9 497.627 673.196 493.766 673.738C466.276 677.596 459.096 684.776 455.238 712.266C454.696 716.127 451.4 719 447.5 719C443.6 719 440.304 716.127 439.762 712.266C435.904 684.776 428.724 677.596 401.234 673.738C397.373 673.196 394.5 669.9 394.5 666C394.5 662.1 397.373 658.804 401.234 658.262C428.724 654.404 435.904 647.224 439.762 619.734C440.304 615.873 443.6 613 447.5 613Z"
    fill="url(#bg)"/>
  <rect x="526" y="559" width="134" height="20" rx="10" fill="url(#bg)"/>
  <rect x="526" y="610" width="134" height="20" rx="10" fill="url(#bg)"/>
  <rect x="526" y="661" width="134" height="20" rx="10" fill="url(#bg)"/>
</svg>
